<svg width="627" height="200" viewBox="0 0 627 200" fill="none" xmlns="http://www.w3.org/2000/svg">
<g clip-path="url(#clip0)">
<path d="M61.0105 165H622.307" stroke="black"/>
<path d="M61.0105 171V165" stroke="black"/>
<path d="M63.6999 178.361C63.6999 179.631 63.4831 180.574 63.0496 181.191C62.616 181.809 61.9382 182.117 61.0164 182.117C60.1062 182.117 59.4324 181.816 58.9949 181.215C58.5574 180.609 58.3308 179.707 58.3152 178.508V177.061C58.3152 175.807 58.532 174.875 58.9656 174.266C59.3992 173.656 60.0789 173.352 61.0046 173.352C61.9226 173.352 62.5984 173.646 63.032 174.236C63.4656 174.822 63.6882 175.729 63.6999 176.955V178.361ZM62.616 176.879C62.616 175.961 62.4871 175.293 62.2292 174.875C61.9714 174.453 61.5632 174.242 61.0046 174.242C60.4499 174.242 60.0456 174.451 59.7917 174.869C59.5378 175.287 59.407 175.93 59.3992 176.797V178.531C59.3992 179.453 59.532 180.135 59.7976 180.576C60.0671 181.014 60.4734 181.232 61.0164 181.232C61.5515 181.232 61.948 181.025 62.2058 180.611C62.4675 180.197 62.6042 179.545 62.616 178.654V176.879Z" fill="black"/>
<path d="M123.377 171V165" stroke="black"/>
<path d="M124.279 182H123.189V174.775L121.004 175.578V174.594L124.109 173.428H124.279V182Z" fill="black"/>
<path d="M185.743 171V165" stroke="black"/>
<path d="M188.673 182H183.083V181.221L186.036 177.939C186.473 177.443 186.774 177.041 186.938 176.732C187.106 176.42 187.19 176.098 187.19 175.766C187.19 175.32 187.056 174.955 186.786 174.67C186.516 174.385 186.157 174.242 185.708 174.242C185.169 174.242 184.749 174.396 184.448 174.705C184.151 175.01 184.003 175.436 184.003 175.982H182.919C182.919 175.197 183.171 174.562 183.675 174.078C184.182 173.594 184.86 173.352 185.708 173.352C186.501 173.352 187.128 173.561 187.589 173.979C188.05 174.393 188.28 174.945 188.28 175.637C188.28 176.477 187.745 177.477 186.675 178.637L184.39 181.115H188.673V182Z" fill="black"/>
<path d="M248.109 171V165" stroke="black"/>
<path d="M247.025 177.207H247.84C248.351 177.199 248.754 177.064 249.047 176.803C249.34 176.541 249.486 176.188 249.486 175.742C249.486 174.742 248.988 174.242 247.992 174.242C247.523 174.242 247.148 174.377 246.867 174.646C246.59 174.912 246.451 175.266 246.451 175.707H245.367C245.367 175.031 245.613 174.471 246.105 174.025C246.601 173.576 247.23 173.352 247.992 173.352C248.797 173.352 249.428 173.564 249.885 173.99C250.342 174.416 250.57 175.008 250.57 175.766C250.57 176.137 250.449 176.496 250.207 176.844C249.969 177.191 249.643 177.451 249.228 177.623C249.697 177.771 250.059 178.018 250.312 178.361C250.57 178.705 250.699 179.125 250.699 179.621C250.699 180.387 250.449 180.994 249.949 181.443C249.449 181.893 248.799 182.117 247.998 182.117C247.197 182.117 246.545 181.9 246.041 181.467C245.541 181.033 245.291 180.461 245.291 179.75H246.381C246.381 180.199 246.527 180.559 246.82 180.828C247.113 181.098 247.506 181.232 247.998 181.232C248.521 181.232 248.922 181.096 249.199 180.822C249.476 180.549 249.615 180.156 249.615 179.645C249.615 179.148 249.463 178.768 249.158 178.502C248.853 178.236 248.414 178.1 247.84 178.092H247.025V177.207Z" fill="black"/>
<path d="M310.476 171V165" stroke="black"/>
<path d="M312.392 179.135H313.575V180.02H312.392V182H311.302V180.02H307.417V179.381L311.237 173.469H312.392V179.135ZM308.647 179.135H311.302V174.951L311.173 175.186L308.647 179.135Z" fill="black"/>
<path d="M372.842 171V165" stroke="black"/>
<path d="M370.68 177.723L371.113 173.469H375.484V174.471H372.033L371.775 176.797C372.193 176.551 372.668 176.428 373.199 176.428C373.977 176.428 374.594 176.686 375.051 177.201C375.508 177.713 375.736 178.406 375.736 179.281C375.736 180.16 375.498 180.854 375.021 181.361C374.549 181.865 373.887 182.117 373.035 182.117C372.281 182.117 371.666 181.908 371.189 181.49C370.713 181.072 370.441 180.494 370.375 179.756H371.4C371.467 180.244 371.641 180.613 371.922 180.863C372.203 181.109 372.574 181.232 373.035 181.232C373.539 181.232 373.934 181.061 374.219 180.717C374.508 180.373 374.652 179.898 374.652 179.293C374.652 178.723 374.496 178.266 374.184 177.922C373.875 177.574 373.463 177.4 372.947 177.4C372.475 177.4 372.104 177.504 371.834 177.711L371.547 177.945L370.68 177.723Z" fill="black"/>
<path d="M435.208 171V165" stroke="black"/>
<path d="M436.802 173.463V174.383H436.603C435.759 174.398 435.087 174.648 434.587 175.133C434.087 175.617 433.798 176.299 433.72 177.178C434.169 176.662 434.782 176.404 435.56 176.404C436.302 176.404 436.894 176.666 437.335 177.189C437.78 177.713 438.003 178.389 438.003 179.217C438.003 180.096 437.763 180.799 437.282 181.326C436.806 181.854 436.165 182.117 435.36 182.117C434.544 182.117 433.882 181.805 433.374 181.18C432.866 180.551 432.612 179.742 432.612 178.754V178.338C432.612 176.768 432.946 175.568 433.614 174.74C434.286 173.908 435.284 173.482 436.608 173.463H436.802ZM435.378 177.307C435.007 177.307 434.665 177.418 434.353 177.641C434.04 177.863 433.823 178.143 433.702 178.479V178.877C433.702 179.58 433.86 180.146 434.177 180.576C434.493 181.006 434.888 181.221 435.36 181.221C435.849 181.221 436.232 181.041 436.509 180.682C436.79 180.322 436.931 179.852 436.931 179.27C436.931 178.684 436.788 178.211 436.503 177.852C436.222 177.488 435.847 177.307 435.378 177.307Z" fill="black"/>
<path d="M497.574 171V165" stroke="black"/>
<path d="M500.422 174.078L496.889 182H495.752L499.274 174.359H494.656V173.469H500.422V174.078Z" fill="black"/>
<path d="M559.941 171V165" stroke="black"/>
<path d="M562.454 175.695C562.454 176.121 562.341 176.5 562.114 176.832C561.892 177.164 561.589 177.424 561.206 177.611C561.652 177.803 562.003 178.082 562.261 178.449C562.523 178.816 562.654 179.232 562.654 179.697C562.654 180.436 562.404 181.023 561.904 181.461C561.407 181.898 560.753 182.117 559.941 182.117C559.12 182.117 558.462 181.898 557.966 181.461C557.474 181.02 557.228 180.432 557.228 179.697C557.228 179.236 557.353 178.82 557.603 178.449C557.857 178.078 558.206 177.797 558.652 177.605C558.273 177.418 557.974 177.158 557.755 176.826C557.536 176.494 557.427 176.117 557.427 175.695C557.427 174.977 557.657 174.406 558.118 173.984C558.579 173.562 559.187 173.352 559.941 173.352C560.691 173.352 561.296 173.562 561.757 173.984C562.222 174.406 562.454 174.977 562.454 175.695ZM561.57 179.674C561.57 179.197 561.417 178.809 561.112 178.508C560.812 178.207 560.417 178.057 559.929 178.057C559.441 178.057 559.048 178.205 558.751 178.502C558.458 178.799 558.312 179.189 558.312 179.674C558.312 180.158 558.454 180.539 558.739 180.816C559.029 181.094 559.429 181.232 559.941 181.232C560.448 181.232 560.847 181.094 561.136 180.816C561.425 180.535 561.57 180.154 561.57 179.674ZM559.941 174.242C559.515 174.242 559.169 174.375 558.904 174.641C558.642 174.902 558.511 175.26 558.511 175.713C558.511 176.146 558.64 176.498 558.898 176.768C559.159 177.033 559.507 177.166 559.941 177.166C560.374 177.166 560.72 177.033 560.978 176.768C561.239 176.498 561.37 176.146 561.37 175.713C561.37 175.279 561.236 174.926 560.966 174.652C560.696 174.379 560.355 174.242 559.941 174.242Z" fill="black"/>
<path d="M622.307 171V165" stroke="black"/>
<path d="M623.801 178.25C623.574 178.52 623.303 178.736 622.987 178.9C622.674 179.064 622.33 179.146 621.955 179.146C621.463 179.146 621.033 179.025 620.666 178.783C620.303 178.541 620.022 178.201 619.823 177.764C619.623 177.322 619.524 176.836 619.524 176.305C619.524 175.734 619.631 175.221 619.846 174.764C620.065 174.307 620.373 173.957 620.772 173.715C621.17 173.473 621.635 173.352 622.166 173.352C623.01 173.352 623.674 173.668 624.158 174.301C624.647 174.93 624.891 175.789 624.891 176.879V177.195C624.891 178.855 624.563 180.068 623.907 180.834C623.25 181.596 622.26 181.986 620.936 182.006H620.725V181.092H620.953C621.848 181.076 622.535 180.844 623.016 180.395C623.496 179.941 623.758 179.227 623.801 178.25ZM622.131 178.25C622.494 178.25 622.828 178.139 623.133 177.916C623.442 177.693 623.666 177.418 623.807 177.09V176.656C623.807 175.945 623.653 175.367 623.344 174.922C623.035 174.477 622.645 174.254 622.172 174.254C621.696 174.254 621.313 174.438 621.024 174.805C620.735 175.168 620.59 175.648 620.59 176.246C620.59 176.828 620.729 177.309 621.006 177.688C621.287 178.062 621.662 178.25 622.131 178.25Z" fill="black"/>
<path d="M61.0105 5V165" stroke="black"/>
<path d="M55.3787 165H61.0105" stroke="black"/>
<path d="M50.0059 160.361C50.0059 161.631 49.7891 162.574 49.3555 163.191C48.922 163.809 48.2442 164.117 47.3223 164.117C46.4122 164.117 45.7384 163.816 45.3009 163.215C44.8634 162.609 44.6368 161.707 44.6212 160.508V159.061C44.6212 157.807 44.838 156.875 45.2716 156.266C45.7052 155.656 46.3848 155.352 47.3106 155.352C48.2286 155.352 48.9044 155.646 49.338 156.236C49.7716 156.822 49.9942 157.729 50.0059 158.955V160.361ZM48.922 158.879C48.922 157.961 48.793 157.293 48.5352 156.875C48.2774 156.453 47.8692 156.242 47.3106 156.242C46.7559 156.242 46.3516 156.451 46.0977 156.869C45.8438 157.287 45.713 157.93 45.7052 158.797V160.531C45.7052 161.453 45.838 162.135 46.1036 162.576C46.3731 163.014 46.7794 163.232 47.3223 163.232C47.8575 163.232 48.254 163.025 48.5118 162.611C48.7735 162.197 48.9102 161.545 48.922 160.654V158.879Z" fill="black"/>
<path d="M55.3788 125H61.0105" stroke="black"/>
<path d="M43.5079 124H37.918V123.221L40.8712 119.939C41.3087 119.443 41.6095 119.041 41.7735 118.732C41.9415 118.42 42.0255 118.098 42.0255 117.766C42.0255 117.32 41.8907 116.955 41.6212 116.67C41.3516 116.385 40.9923 116.242 40.543 116.242C40.004 116.242 39.5841 116.396 39.2833 116.705C38.9864 117.01 38.838 117.436 38.838 117.982H37.754C37.754 117.197 38.0059 116.562 38.5098 116.078C39.0177 115.594 39.6954 115.352 40.543 115.352C41.336 115.352 41.963 115.561 42.4239 115.979C42.8848 116.393 43.1153 116.945 43.1153 117.637C43.1153 118.477 42.5802 119.477 41.5098 120.637L39.2247 123.115H43.5079V124ZM45.1544 119.723L45.588 115.469H49.9591V116.471H46.5079L46.2501 118.797C46.668 118.551 47.1427 118.428 47.6739 118.428C48.4513 118.428 49.0684 118.686 49.5255 119.201C49.9825 119.713 50.211 120.406 50.211 121.281C50.211 122.16 49.9727 122.854 49.4962 123.361C49.0235 123.865 48.3614 124.117 47.5098 124.117C46.7559 124.117 46.1407 123.908 45.6641 123.49C45.1876 123.072 44.9161 122.494 44.8497 121.756H45.8751C45.9415 122.244 46.1153 122.613 46.3966 122.863C46.6778 123.109 47.0489 123.232 47.5098 123.232C48.0138 123.232 48.4083 123.061 48.6934 122.717C48.9825 122.373 49.127 121.898 49.127 121.293C49.127 120.723 48.9708 120.266 48.6583 119.922C48.3497 119.574 47.9376 119.4 47.422 119.4C46.9493 119.4 46.5782 119.504 46.3087 119.711L46.0216 119.945L45.1544 119.723ZM50.0059 134.361C50.0059 135.631 49.7891 136.574 49.3555 137.191C48.922 137.809 48.2442 138.117 47.3223 138.117C46.4122 138.117 45.7384 137.816 45.3009 137.215C44.8634 136.609 44.6368 135.707 44.6212 134.508V133.061C44.6212 131.807 44.838 130.875 45.2716 130.266C45.7052 129.656 46.3848 129.352 47.3106 129.352C48.2286 129.352 48.9044 129.646 49.338 130.236C49.7716 130.822 49.9942 131.729 50.0059 132.955V134.361ZM48.922 132.879C48.922 131.961 48.793 131.293 48.5352 130.875C48.2774 130.453 47.8692 130.242 47.3106 130.242C46.7559 130.242 46.3516 130.451 46.0977 130.869C45.8438 131.287 45.713 131.93 45.7052 132.797V134.531C45.7052 135.453 45.838 136.135 46.1036 136.576C46.3731 137.014 46.7794 137.232 47.3223 137.232C47.8575 137.232 48.254 137.025 48.5118 136.611C48.7735 136.197 48.9102 135.545 48.922 134.654V132.879Z" fill="black"/>
<path d="M55.3788 85H61.0105" stroke="black"/>
<path d="M38.4161 79.7227L38.8497 75.4688H43.2208V76.4707H39.7696L39.5118 78.7969C39.9298 78.5508 40.4044 78.4277 40.9356 78.4277C41.713 78.4277 42.3302 78.6855 42.7872 79.2012C43.2442 79.7129 43.4727 80.4062 43.4727 81.2812C43.4727 82.1602 43.2345 82.8535 42.7579 83.3613C42.2852 83.8652 41.6231 84.1172 40.7716 84.1172C40.0177 84.1172 39.4024 83.9082 38.9259 83.4902C38.4493 83.0723 38.1778 82.4941 38.1114 81.7559H39.1368C39.2032 82.2441 39.377 82.6133 39.6583 82.8633C39.9395 83.1094 40.3106 83.2324 40.7716 83.2324C41.2755 83.2324 41.67 83.0605 41.9552 82.7168C42.2442 82.373 42.3888 81.8984 42.3888 81.293C42.3888 80.7227 42.2325 80.2656 41.92 79.9219C41.6114 79.5742 41.1993 79.4004 40.6837 79.4004C40.211 79.4004 39.8399 79.5039 39.5704 79.7109L39.2833 79.9453L38.4161 79.7227ZM50.0059 80.3613C50.0059 81.6309 49.7891 82.5742 49.3555 83.1914C48.922 83.8086 48.2442 84.1172 47.3223 84.1172C46.4122 84.1172 45.7384 83.8164 45.3009 83.2148C44.8634 82.6094 44.6368 81.707 44.6212 80.5078V79.0605C44.6212 77.8066 44.838 76.875 45.2716 76.2656C45.7052 75.6562 46.3848 75.3516 47.3106 75.3516C48.2286 75.3516 48.9044 75.6465 49.338 76.2363C49.7716 76.8223 49.9942 77.7285 50.0059 78.9551V80.3613ZM48.922 78.8789C48.922 77.9609 48.793 77.293 48.5352 76.875C48.2774 76.4531 47.8692 76.2422 47.3106 76.2422C46.7559 76.2422 46.3516 76.4512 46.0977 76.8691C45.8438 77.2871 45.713 77.9297 45.7052 78.7969V80.5312C45.7052 81.4531 45.838 82.1348 46.1036 82.5762C46.3731 83.0137 46.7794 83.2324 47.3223 83.2324C47.8575 83.2324 48.254 83.0254 48.5118 82.6113C48.7735 82.1973 48.9102 81.5449 48.922 80.6543V78.8789ZM50.0059 94.3613C50.0059 95.6309 49.7891 96.5742 49.3555 97.1914C48.922 97.8086 48.2442 98.1172 47.3223 98.1172C46.4122 98.1172 45.7384 97.8164 45.3009 97.2148C44.8634 96.6094 44.6368 95.707 44.6212 94.5078V93.0605C44.6212 91.8066 44.838 90.875 45.2716 90.2656C45.7052 89.6562 46.3848 89.3516 47.3106 89.3516C48.2286 89.3516 48.9044 89.6465 49.338 90.2363C49.7716 90.8223 49.9942 91.7285 50.0059 92.9551V94.3613ZM48.922 92.8789C48.922 91.9609 48.793 91.293 48.5352 90.875C48.2774 90.4531 47.8692 90.2422 47.3106 90.2422C46.7559 90.2422 46.3516 90.4512 46.0977 90.8691C45.8438 91.2871 45.713 91.9297 45.7052 92.7969V94.5312C45.7052 95.4531 45.838 96.1348 46.1036 96.5762C46.3731 97.0137 46.7794 97.2324 47.3223 97.2324C47.8575 97.2324 48.254 97.0254 48.5118 96.6113C48.7735 96.1973 48.9102 95.5449 48.922 94.6543V92.8789Z" fill="black"/>
<path d="M55.3788 45H61.0105" stroke="black"/>
<path d="M43.4259 36.0781L39.8927 44H38.7559L42.2774 36.3594H37.6602V35.4688H43.4259V36.0781ZM45.1544 39.7227L45.588 35.4688H49.9591V36.4707H46.5079L46.2501 38.7969C46.668 38.5508 47.1427 38.4277 47.6739 38.4277C48.4513 38.4277 49.0684 38.6855 49.5255 39.2012C49.9825 39.7129 50.211 40.4062 50.211 41.2812C50.211 42.1602 49.9727 42.8535 49.4962 43.3613C49.0235 43.8652 48.3614 44.1172 47.5098 44.1172C46.7559 44.1172 46.1407 43.9082 45.6641 43.4902C45.1876 43.0723 44.9161 42.4941 44.8497 41.7559H45.8751C45.9415 42.2441 46.1153 42.6133 46.3966 42.8633C46.6778 43.1094 47.0489 43.2324 47.5098 43.2324C48.0138 43.2324 48.4083 43.0605 48.6934 42.7168C48.9825 42.373 49.127 41.8984 49.127 41.293C49.127 40.7227 48.9708 40.2656 48.6583 39.9219C48.3497 39.5742 47.9376 39.4004 47.422 39.4004C46.9493 39.4004 46.5782 39.5039 46.3087 39.7109L46.0216 39.9453L45.1544 39.7227ZM50.0059 54.3613C50.0059 55.6309 49.7891 56.5742 49.3555 57.1914C48.922 57.8086 48.2442 58.1172 47.3223 58.1172C46.4122 58.1172 45.7384 57.8164 45.3009 57.2148C44.8634 56.6094 44.6368 55.707 44.6212 54.5078V53.0605C44.6212 51.8066 44.838 50.875 45.2716 50.2656C45.7052 49.6562 46.3848 49.3516 47.3106 49.3516C48.2286 49.3516 48.9044 49.6465 49.338 50.2363C49.7716 50.8223 49.9942 51.7285 50.0059 52.9551V54.3613ZM48.922 52.8789C48.922 51.9609 48.793 51.293 48.5352 50.875C48.2774 50.4531 47.8692 50.2422 47.3106 50.2422C46.7559 50.2422 46.3516 50.4512 46.0977 50.8691C45.8438 51.2871 45.713 51.9297 45.7052 52.7969V54.5312C45.7052 55.4531 45.838 56.1348 46.1036 56.5762C46.3731 57.0137 46.7794 57.2324 47.3223 57.2324C47.8575 57.2324 48.254 57.0254 48.5118 56.6113C48.7735 56.1973 48.9102 55.5449 48.922 54.6543V52.8789Z" fill="black"/>
<path d="M55.3787 5H61.0105" stroke="black"/>
<path d="M34.7423 8H33.6524V0.775391L31.4669 1.57812V0.59375L34.5723 -0.572266H34.7423V8ZM43.2676 4.36133C43.2676 5.63086 43.0509 6.57422 42.6173 7.19141C42.1837 7.80859 41.5059 8.11719 40.5841 8.11719C39.6739 8.11719 39.0001 7.81641 38.5626 7.21484C38.1251 6.60938 37.8985 5.70703 37.8829 4.50781V3.06055C37.8829 1.80664 38.0997 0.875 38.5333 0.265625C38.9669 -0.34375 39.6466 -0.648438 40.5723 -0.648438C41.4903 -0.648438 42.1661 -0.353516 42.5997 0.236328C43.0333 0.822266 43.2559 1.72852 43.2676 2.95508V4.36133ZM42.1837 2.87891C42.1837 1.96094 42.0548 1.29297 41.7969 0.875C41.5391 0.453125 41.1309 0.242188 40.5723 0.242188C40.0176 0.242188 39.6134 0.451172 39.3594 0.869141C39.1055 1.28711 38.9747 1.92969 38.9669 2.79688V4.53125C38.9669 5.45312 39.0997 6.13477 39.3653 6.57617C39.6348 7.01367 40.0411 7.23242 40.5841 7.23242C41.1192 7.23242 41.5157 7.02539 41.7735 6.61133C42.0352 6.19727 42.1719 5.54492 42.1837 4.6543V2.87891ZM50.0059 4.36133C50.0059 5.63086 49.7891 6.57422 49.3555 7.19141C48.9219 7.80859 48.2442 8.11719 47.3223 8.11719C46.4122 8.11719 45.7384 7.81641 45.3009 7.21484C44.8634 6.60938 44.6368 5.70703 44.6212 4.50781V3.06055C44.6212 1.80664 44.838 0.875 45.2716 0.265625C45.7051 -0.34375 46.3848 -0.648438 47.3106 -0.648438C48.2286 -0.648438 48.9044 -0.353516 49.338 0.236328C49.7716 0.822266 49.9942 1.72852 50.0059 2.95508V4.36133ZM48.9219 2.87891C48.9219 1.96094 48.793 1.29297 48.5352 0.875C48.2774 0.453125 47.8692 0.242188 47.3106 0.242188C46.7559 0.242188 46.3516 0.451172 46.0977 0.869141C45.8438 1.28711 45.713 1.92969 45.7051 2.79688V4.53125C45.7051 5.45312 45.838 6.13477 46.1036 6.57617C46.3731 7.01367 46.7794 7.23242 47.3223 7.23242C47.8575 7.23242 48.254 7.02539 48.5118 6.61133C48.7735 6.19727 48.9102 5.54492 48.9219 4.6543V2.87891ZM50.0059 18.3613C50.0059 19.6309 49.7891 20.5742 49.3555 21.1914C48.9219 21.8086 48.2442 22.1172 47.3223 22.1172C46.4122 22.1172 45.7384 21.8164 45.3009 21.2148C44.8634 20.6094 44.6368 19.707 44.6212 18.5078V17.0605C44.6212 15.8066 44.838 14.875 45.2716 14.2656C45.7051 13.6562 46.3848 13.3516 47.3106 13.3516C48.2286 13.3516 48.9044 13.6465 49.338 14.2363C49.7716 14.8223 49.9942 15.7285 50.0059 16.9551V18.3613ZM48.9219 16.8789C48.9219 15.9609 48.793 15.293 48.5352 14.875C48.2774 14.4531 47.8692 14.2422 47.3106 14.2422C46.7559 14.2422 46.3516 14.4512 46.0977 14.8691C45.8438 15.2871 45.713 15.9297 45.7051 16.7969V18.5312C45.7051 19.4531 45.838 20.1348 46.1036 20.5762C46.3731 21.0137 46.7794 21.2324 47.3223 21.2324C47.8575 21.2324 48.254 21.0254 48.5118 20.6113C48.7735 20.1973 48.9102 19.5449 48.9219 18.6543V16.8789Z" fill="black"/>
<path d="M61.0105 165H622.307" stroke="#CCCCCC"/>
<path d="M61.0105 125H622.307" stroke="#CCCCCC"/>
<path d="M61.0105 85H622.307" stroke="#CCCCCC"/>
<path d="M61.0105 45H622.307" stroke="#CCCCCC"/>
<path d="M61.0105 5H622.307" stroke="#CCCCCC"/>
<path d="M61.0105 5V165" stroke="#CCCCCC"/>
<path d="M123.377 5V165" stroke="#CCCCCC"/>
<path d="M185.743 5V165" stroke="#CCCCCC"/>
<path d="M248.109 5V165" stroke="#CCCCCC"/>
<path d="M310.476 5V165" stroke="#CCCCCC"/>
<path d="M372.842 5V165" stroke="#CCCCCC"/>
<path d="M435.208 5V165" stroke="#CCCCCC"/>
<path d="M497.574 5V165" stroke="#CCCCCC"/>
<path d="M559.941 5V165" stroke="#CCCCCC"/>
<path d="M622.307 5V165" stroke="#CCCCCC"/>
<path d="M61.0105 137.48L123.377 46.12L185.743 60.68L248.109 114.12L310.476 142.76L372.842 160.68L435.208 53L497.574 149.96L559.941 18.44L622.307 120.04" stroke="#FFFB29"/>
<path d="M61.0105 140.48C62.5656 140.48 63.8263 139.137 63.8263 137.48C63.8263 135.823 62.5656 134.48 61.0105 134.48C59.4553 134.48 58.1946 135.823 58.1946 137.48C58.1946 139.137 59.4553 140.48 61.0105 140.48Z" fill="white" stroke="#FFFB29"/>
<path d="M123.377 49.12C124.932 49.12 126.193 47.7768 126.193 46.12C126.193 44.4631 124.932 43.12 123.377 43.12C121.822 43.12 120.561 44.4631 120.561 46.12C120.561 47.7768 121.822 49.12 123.377 49.12Z" fill="white" stroke="#FFFB29"/>
<path d="M185.743 63.68C187.298 63.68 188.559 62.3369 188.559 60.68C188.559 59.0232 187.298 57.68 185.743 57.68C184.188 57.68 182.927 59.0232 182.927 60.68C182.927 62.3369 184.188 63.68 185.743 63.68Z" fill="white" stroke="#FFFB29"/>
<path d="M248.109 117.12C249.664 117.12 250.925 115.777 250.925 114.12C250.925 112.463 249.664 111.12 248.109 111.12C246.554 111.12 245.293 112.463 245.293 114.12C245.293 115.777 246.554 117.12 248.109 117.12Z" fill="white" stroke="#FFFB29"/>
<path d="M310.476 145.76C312.031 145.76 313.291 144.417 313.291 142.76C313.291 141.103 312.031 139.76 310.476 139.76C308.92 139.76 307.66 141.103 307.66 142.76C307.66 144.417 308.92 145.76 310.476 145.76Z" fill="white" stroke="#FFFB29"/>
<path d="M372.842 163.68C374.397 163.68 375.658 162.337 375.658 160.68C375.658 159.023 374.397 157.68 372.842 157.68C371.287 157.68 370.026 159.023 370.026 160.68C370.026 162.337 371.287 163.68 372.842 163.68Z" fill="white" stroke="#FFFB29"/>
<path d="M435.208 56C436.763 56 438.024 54.6569 438.024 53C438.024 51.3431 436.763 50 435.208 50C433.653 50 432.392 51.3431 432.392 53C432.392 54.6569 433.653 56 435.208 56Z" fill="white" stroke="#FFFB29"/>
<path d="M497.574 152.96C499.129 152.96 500.39 151.617 500.39 149.96C500.39 148.303 499.129 146.96 497.574 146.96C496.019 146.96 494.758 148.303 494.758 149.96C494.758 151.617 496.019 152.96 497.574 152.96Z" fill="white" stroke="#FFFB29"/>
<path d="M559.941 21.44C561.496 21.44 562.756 20.0969 562.756 18.44C562.756 16.7831 561.496 15.44 559.941 15.44C558.385 15.44 557.125 16.7831 557.125 18.44C557.125 20.0969 558.385 21.44 559.941 21.44Z" fill="white" stroke="#FFFB29"/>
<path d="M622.307 123.04C623.862 123.04 625.123 121.697 625.123 120.04C625.123 118.383 623.862 117.04 622.307 117.04C620.752 117.04 619.491 118.383 619.491 120.04C619.491 121.697 620.752 123.04 622.307 123.04Z" fill="white" stroke="#FFFB29"/>
<path d="M61.0105 14.44L123.377 125.64L185.743 91.08L248.109 37L310.476 136.36L372.842 160.2L435.208 56.68L497.574 89.32L559.941 94.28L622.307 16.36" stroke="#0A7538"/>
<path d="M61.0105 17.44C62.5656 17.44 63.8263 16.0969 63.8263 14.44C63.8263 12.7831 62.5656 11.44 61.0105 11.44C59.4553 11.44 58.1946 12.7831 58.1946 14.44C58.1946 16.0969 59.4553 17.44 61.0105 17.44Z" fill="white" stroke="#0A7538"/>
<path d="M123.377 128.64C124.932 128.64 126.193 127.297 126.193 125.64C126.193 123.983 124.932 122.64 123.377 122.64C121.822 122.64 120.561 123.983 120.561 125.64C120.561 127.297 121.822 128.64 123.377 128.64Z" fill="white" stroke="#0A7538"/>
<path d="M185.743 94.08C187.298 94.08 188.559 92.7369 188.559 91.08C188.559 89.4231 187.298 88.08 185.743 88.08C184.188 88.08 182.927 89.4231 182.927 91.08C182.927 92.7369 184.188 94.08 185.743 94.08Z" fill="white" stroke="#0A7538"/>
<path d="M248.109 40C249.664 40 250.925 38.6569 250.925 37C250.925 35.3431 249.664 34 248.109 34C246.554 34 245.293 35.3431 245.293 37C245.293 38.6569 246.554 40 248.109 40Z" fill="white" stroke="#0A7538"/>
<path d="M310.476 139.36C312.031 139.36 313.291 138.017 313.291 136.36C313.291 134.703 312.031 133.36 310.476 133.36C308.92 133.36 307.66 134.703 307.66 136.36C307.66 138.017 308.92 139.36 310.476 139.36Z" fill="white" stroke="#0A7538"/>
<path d="M372.842 163.2C374.397 163.2 375.658 161.857 375.658 160.2C375.658 158.543 374.397 157.2 372.842 157.2C371.287 157.2 370.026 158.543 370.026 160.2C370.026 161.857 371.287 163.2 372.842 163.2Z" fill="white" stroke="#0A7538"/>
<path d="M435.208 59.68C436.763 59.68 438.024 58.3369 438.024 56.68C438.024 55.0232 436.763 53.68 435.208 53.68C433.653 53.68 432.392 55.0232 432.392 56.68C432.392 58.3369 433.653 59.68 435.208 59.68Z" fill="white" stroke="#0A7538"/>
<path d="M497.574 92.32C499.129 92.32 500.39 90.9769 500.39 89.32C500.39 87.6632 499.129 86.32 497.574 86.32C496.019 86.32 494.758 87.6632 494.758 89.32C494.758 90.9769 496.019 92.32 497.574 92.32Z" fill="white" stroke="#0A7538"/>
<path d="M559.941 97.28C561.496 97.28 562.756 95.9369 562.756 94.28C562.756 92.6231 561.496 91.28 559.941 91.28C558.385 91.28 557.125 92.6231 557.125 94.28C557.125 95.9369 558.385 97.28 559.941 97.28Z" fill="white" stroke="#0A7538"/>
<path d="M622.307 19.36C623.862 19.36 625.123 18.0169 625.123 16.36C625.123 14.7031 623.862 13.36 622.307 13.36C620.752 13.36 619.491 14.7031 619.491 16.36C619.491 18.0169 620.752 19.36 622.307 19.36Z" fill="white" stroke="#0A7538"/>
</g>
<defs>
<clipPath id="clip0">
<rect width="627" height="200" fill="white"/>
</clipPath>
</defs>
</svg>
